G04 Layer: TopSolderMaskLayer*
G04 EasyEDA v6.4.25, 2022-05-19T19:16:08--7:00*
G04 0dbdd77669684f62939db12cf9e3c97e,10*
G04 Gerber Generator version 0.2*
G04 Scale: 100 percent, Rotated: No, Reflected: No *
G04 Dimensions in millimeters *
G04 leading zeros omitted , absolute positions ,4 integer and 5 decimal *
%FSLAX45Y45*%
%MOMM*%

%ADD23C,0.3816*%

%LPD*%
D23*
X3380826Y8316468D02*
G01*
X3432825Y8316468D01*
X3380826Y8266480D02*
G01*
X3432825Y8266480D01*
X3380826Y8216468D02*
G01*
X3432825Y8216468D01*
X3380826Y8166480D02*
G01*
X3432825Y8166480D01*
X3380826Y8116468D02*
G01*
X3432825Y8116468D01*
X3380826Y8066481D02*
G01*
X3432825Y8066481D01*
X3481831Y8017474D02*
G01*
X3481831Y7965475D01*
X3531819Y8017474D02*
G01*
X3531819Y7965475D01*
X3581831Y8017474D02*
G01*
X3581831Y7965475D01*
X3631818Y8017474D02*
G01*
X3631818Y7965475D01*
X3681831Y8017474D02*
G01*
X3681831Y7965475D01*
X3731818Y8017474D02*
G01*
X3731818Y7965475D01*
X3780825Y8066481D02*
G01*
X3832824Y8066481D01*
X3780825Y8116468D02*
G01*
X3832824Y8116468D01*
X3780825Y8166480D02*
G01*
X3832824Y8166480D01*
X3780825Y8216468D02*
G01*
X3832824Y8216468D01*
X3780825Y8266480D02*
G01*
X3832824Y8266480D01*
X3780825Y8315680D02*
G01*
X3832824Y8315680D01*
X3731818Y8417473D02*
G01*
X3731818Y8365474D01*
X3681831Y8417473D02*
G01*
X3681831Y8365474D01*
X3631818Y8417473D02*
G01*
X3631818Y8365474D01*
X3581831Y8417473D02*
G01*
X3581831Y8365474D01*
X3531819Y8417473D02*
G01*
X3531819Y8365474D01*
X3481831Y8417473D02*
G01*
X3481831Y8365474D01*
G36*
X3466845Y8050021D02*
G01*
X3466845Y8330184D01*
X3746754Y8330184D01*
X3746754Y8050021D01*
G37*
G36*
X7480554Y4981955D02*
G01*
X7480554Y5020055D01*
X7557261Y5020055D01*
X7557261Y4981955D01*
G37*
G36*
X7480554Y4931918D02*
G01*
X7480554Y4970018D01*
X7557261Y4970018D01*
X7557261Y4931918D01*
G37*
G36*
X7480554Y4881879D02*
G01*
X7480554Y4919979D01*
X7557261Y4919979D01*
X7557261Y4881879D01*
G37*
G36*
X7480554Y4831842D02*
G01*
X7480554Y4870195D01*
X7557261Y4870195D01*
X7557261Y4831842D01*
G37*
G36*
X7480554Y4781804D02*
G01*
X7480554Y4820157D01*
X7557261Y4820157D01*
X7557261Y4781804D01*
G37*
G36*
X7480554Y4732020D02*
G01*
X7480554Y4770120D01*
X7557261Y4770120D01*
X7557261Y4732020D01*
G37*
G36*
X7480554Y4681981D02*
G01*
X7480554Y4720081D01*
X7557261Y4720081D01*
X7557261Y4681981D01*
G37*
G36*
X7480554Y4631944D02*
G01*
X7480554Y4670044D01*
X7557261Y4670044D01*
X7557261Y4631944D01*
G37*
G36*
X7565643Y4546854D02*
G01*
X7565643Y4623562D01*
X7603743Y4623562D01*
X7603743Y4546854D01*
G37*
G36*
X7615681Y4546854D02*
G01*
X7615681Y4623562D01*
X7653781Y4623562D01*
X7653781Y4546854D01*
G37*
G36*
X7665720Y4546854D02*
G01*
X7665720Y4623562D01*
X7703820Y4623562D01*
X7703820Y4546854D01*
G37*
G36*
X7715504Y4546854D02*
G01*
X7715504Y4623562D01*
X7753858Y4623562D01*
X7753858Y4546854D01*
G37*
G36*
X7765541Y4546854D02*
G01*
X7765541Y4623562D01*
X7803895Y4623562D01*
X7803895Y4546854D01*
G37*
G36*
X7815579Y4546854D02*
G01*
X7815579Y4623562D01*
X7853679Y4623562D01*
X7853679Y4546854D01*
G37*
G36*
X7865618Y4546854D02*
G01*
X7865618Y4623562D01*
X7903718Y4623562D01*
X7903718Y4546854D01*
G37*
G36*
X7915656Y4546854D02*
G01*
X7915656Y4623562D01*
X7953756Y4623562D01*
X7953756Y4546854D01*
G37*
G36*
X7962138Y4631944D02*
G01*
X7962138Y4670044D01*
X8038845Y4670044D01*
X8038845Y4631944D01*
G37*
G36*
X7962138Y4681981D02*
G01*
X7962138Y4720081D01*
X8038845Y4720081D01*
X8038845Y4681981D01*
G37*
G36*
X7962138Y4732020D02*
G01*
X7962138Y4770120D01*
X8038845Y4770120D01*
X8038845Y4732020D01*
G37*
G36*
X7962138Y4781804D02*
G01*
X7962138Y4820157D01*
X8038845Y4820157D01*
X8038845Y4781804D01*
G37*
G36*
X7962138Y4831842D02*
G01*
X7962138Y4870195D01*
X8038845Y4870195D01*
X8038845Y4831842D01*
G37*
G36*
X7962138Y4881879D02*
G01*
X7962138Y4919979D01*
X8038845Y4919979D01*
X8038845Y4881879D01*
G37*
G36*
X7962138Y4931918D02*
G01*
X7962138Y4970018D01*
X8038845Y4970018D01*
X8038845Y4931918D01*
G37*
G36*
X7962138Y4981955D02*
G01*
X7962138Y5020055D01*
X8038845Y5020055D01*
X8038845Y4981955D01*
G37*
G36*
X7915656Y5028437D02*
G01*
X7915656Y5105145D01*
X7953756Y5105145D01*
X7953756Y5028437D01*
G37*
G36*
X7865618Y5028437D02*
G01*
X7865618Y5105145D01*
X7903718Y5105145D01*
X7903718Y5028437D01*
G37*
G36*
X7815579Y5028437D02*
G01*
X7815579Y5105145D01*
X7853679Y5105145D01*
X7853679Y5028437D01*
G37*
G36*
X7765541Y5028437D02*
G01*
X7765541Y5105145D01*
X7803895Y5105145D01*
X7803895Y5028437D01*
G37*
G36*
X7715504Y5028437D02*
G01*
X7715504Y5105145D01*
X7753858Y5105145D01*
X7753858Y5028437D01*
G37*
G36*
X7665720Y5028437D02*
G01*
X7665720Y5105145D01*
X7703820Y5105145D01*
X7703820Y5028437D01*
G37*
G36*
X7615681Y5028437D02*
G01*
X7615681Y5105145D01*
X7653781Y5105145D01*
X7653781Y5028437D01*
G37*
G36*
X7565643Y5028437D02*
G01*
X7565643Y5105145D01*
X7603743Y5105145D01*
X7603743Y5028437D01*
G37*
G36*
X7599679Y4665979D02*
G01*
X7599679Y4986020D01*
X7919720Y4986020D01*
X7919720Y4665979D01*
G37*
M02*
